<svg id="Layer_1" data-name="Layer 1" xmlns="http://www.w3.org/2000/svg" viewBox="0 0 100 30.17"><defs><style>.cls-1{fill:#ef6819;}</style></defs><title>Artboard 1</title><path class="cls-1" d="M13,28.16H11.32V.72h.17l9.38,0h1.72l0,1.37A11.27,11.27,0,0,1,11.3,13.38C3.78,13.38,0,6.94,0,.72H1.61c0,5.35,2.94,11.2,9.69,11.2A9.7,9.7,0,0,0,20.75,4.4,8.8,8.8,0,0,0,21,2.34H12.93L13,26.5v0h6.33V11.85l1.63-2V28.16H11.32v-1.6"/><path class="cls-1" d="M35.6,11.37v17H33.29v-17Z"/><path class="cls-1" d="M37.74,10.63h9.63v1.93H40.05v6h6.76v1.91H40.05v8.09H37.74Z"/><path class="cls-1" d="M58.26,20.12H51.31v6.45h7.74v1.94H49V10.63h9.66v1.93H51.31v5.65h6.95Z"/><path class="cls-1" d="M73.55,27.92a11.34,11.34,0,0,1-4.72.85c-5,0-8.83-3.18-8.83-9,0-5.6,3.79-9.39,9.33-9.39a9.61,9.61,0,0,1,4.25.79L73,13a8.45,8.45,0,0,0-3.61-.74c-4.19,0-7,2.68-7,7.38,0,4.37,2.52,7.19,6.87,7.19a9.21,9.21,0,0,0,3.76-.75Z"/><path class="cls-1" d="M80.75,12.59H75.31v-2H88.55v2H83.08V28.51H80.75Z"/><path class="cls-1" d="M30.3,23.6c-.43-1.86-1.25-3.13-2.63-3.61v-.08A4.69,4.69,0,0,0,31,15.35,4.48,4.48,0,0,0,29.63,12c-1.11-1-2.7-1.46-5.17-1.46-.71,0-1.43,0-2.12.08v1.91a9.81,9.81,0,0,1,2.28-.21c2.44,0,4.11,1,4.11,3.34,0,2.05-1.56,3.4-4,3.4H22.34v1.75h2.17c2.1.08,3,1,3.58,3.48a24,24,0,0,0,1.2,4.27h2.39A27.47,27.47,0,0,1,30.3,23.6Z"/><circle class="cls-1" cx="34.44" cy="8.65" r="1.78"/><path class="cls-1" d="M97.53,28.51H100L93.9,10.63H91.11L85,28.51h2.39l1.68-5.1h0l.7-2.31,1.7-5.19c.35-1.09.64-2.18.9-3.24h.06c.26,1,.53,2.1.92,3.26l1.69,5.19.75,2.37h0Z"/></svg>